<svg width="214" height="63" viewBox="0 0 214 63" fill="none" xmlns="http://www.w3.org/2000/svg">
<path d="M17.777 43.5L13.9571 39.6801L19.6677 34.201H6.85742V28.799H19.6677L13.9571 23.3199L17.777 19.5L29.777 31.5L17.777 43.5Z" fill="#060606"/>
<path d="M34.223 43.5L38.0429 39.6801L32.3323 34.201H45.1426V28.799H32.3323L38.0429 23.3199L34.223 19.5L22.223 31.5L34.223 43.5Z" fill="#060606"/>
<path d="M196.934 43.3104C190.257 43.3104 185.551 38.4253 185.551 31.5683C185.551 24.7561 190.212 19.8262 196.665 19.8262C204.15 19.8262 208.228 26.4591 207.422 33.0921H192.094C192.587 35.6914 194.469 37.3945 196.934 37.3945C198.817 37.3945 200.34 36.4085 200.878 34.8847L206.973 37.2152C205.719 40.8006 201.775 43.3104 196.934 43.3104ZM192.139 29.5067H200.968C200.609 27.2658 198.817 25.6524 196.576 25.6524C194.425 25.6524 192.766 27.1762 192.139 29.5067Z" fill="#060606"/>
<path d="M178.101 42.7716V12.2959H184.375V42.7716H178.101Z" fill="#060606"/>
<path d="M163.682 43.3104C159.424 43.3104 156.332 40.5317 156.332 36.6774C156.332 33.8091 158.573 31.2545 161.71 30.5823L169.06 29.0585C169.598 28.9689 169.867 28.6103 169.867 28.2518C169.867 26.6832 168.567 25.5628 166.73 25.5628C164.937 25.5628 163.503 26.7728 163.324 28.4311L157.228 26.2798C158.259 22.5152 162.113 19.8262 166.461 19.8262C172.063 19.8262 176.141 23.3667 176.141 28.2518V38.2908L176.231 42.7726H171.301L170.315 40.1732C168.881 42.1003 166.506 43.3104 163.682 43.3104ZM162.965 35.4225C162.965 36.6326 163.861 37.4841 165.475 37.4841C167.805 37.4841 169.867 35.6018 169.867 32.5542V32.1509C169.374 32.3302 168.791 32.4646 168.343 32.5542L164.937 33.2713C163.682 33.5402 162.965 34.3469 162.965 35.4225Z" fill="#060606"/>
<path d="M145.924 43.3104C139.381 43.3104 134.72 38.4701 134.72 31.6579C134.72 24.7112 139.381 19.8262 145.924 19.8262C151.257 19.8262 155.425 23.1875 155.963 27.8933L150.047 29.5963C149.509 27.1762 147.896 25.742 145.834 25.742C143.145 25.742 141.263 28.207 141.263 31.5683C141.263 34.9296 143.235 37.3049 145.924 37.3049C148.12 37.3049 149.958 35.6914 150.226 33.1817L156.322 35.064C155.425 40.2628 151.212 43.3104 145.924 43.3104Z" fill="#060606"/>
<path d="M125.205 43.3104C119.469 43.3104 115.121 40.3524 114.808 36.1396L122.158 34.6158C122.247 36.6774 123.637 38.0219 125.743 38.0219C127.267 38.0219 128.253 37.2152 128.253 35.9604C128.253 31.8372 115.883 33.2713 115.883 26.1006C115.883 22.3359 119.558 19.8262 124.757 19.8262C130.314 19.8262 134.169 22.5152 134.348 26.2798L127.356 27.714C127.356 26.0109 126.191 24.9353 124.398 24.9353C123.054 24.9353 122.158 25.6076 122.158 26.6384C122.158 30.5823 134.886 28.9689 134.886 36.3189C134.886 40.3972 130.897 43.3104 125.205 43.3104Z" fill="#060606"/>
<path d="M93.3496 42.7719L101.596 31.3883L93.5289 20.3633H101.686L105.181 26.6377L108.498 20.3633H116.475L108.767 31.3883L117.013 42.7719H108.767L105.092 36.1389L101.596 42.7719H93.3496Z" fill="#060606"/>
<path d="M84.7244 43.3104C78.0466 43.3104 73.3408 38.4253 73.3408 31.5683C73.3408 24.7561 78.0018 19.8262 84.4555 19.8262C91.9399 19.8262 96.0183 26.4591 95.2116 33.0921H79.8841C80.3771 35.6914 82.2594 37.3945 84.7244 37.3945C86.6067 37.3945 88.1305 36.4085 88.6683 34.8847L94.7634 37.2152C93.5085 40.8006 89.5646 43.3104 84.7244 43.3104ZM79.9289 29.5067H88.7579C88.3994 27.2658 86.6067 25.6524 84.3658 25.6524C82.2146 25.6524 80.5564 27.1762 79.9289 29.5067Z" fill="#060606"/>
<path d="M51.5771 42.7726V20.364H56.3278L57.4482 23.8597C58.6134 21.5292 61.3025 19.8262 64.3949 19.8262C69.1007 19.8262 72.4619 23.6356 72.4619 28.9689V42.7726H66.1875V30.2238C66.1875 27.714 64.5741 25.9213 62.154 25.9213C59.6442 25.9213 57.8516 27.8484 57.8516 30.5823V42.7726H51.5771Z" fill="#060606"/>
</svg>
